<?xml version="1.0" encoding="UTF-8"?>
<svg xmlns="http://www.w3.org/2000/svg" xmlns:xlink="http://www.w3.org/1999/xlink" viewBox="0 0 384 384" width="384px" height="384px">
<g id="surface105734722">
<path style="fill-rule:nonzero;fill:rgb(0%,0%,0%);fill-opacity:1;stroke-width:10;stroke-linecap:butt;stroke-linejoin:round;stroke:rgb(0%,0%,0%);stroke-opacity:1;stroke-miterlimit:10;" d="M 224 53.333333 C 227.846354 53.278646 231.424479 55.299479 233.364583 58.622396 C 235.304688 61.945312 235.304688 66.054688 233.364583 69.377604 C 231.424479 72.700521 227.846354 74.721354 224 74.666667 L 32 74.666667 C 28.153646 74.721354 24.575521 72.700521 22.635417 69.377604 C 20.695312 66.054688 20.695312 61.945312 22.635417 58.622396 C 24.575521 55.299479 28.153646 53.278646 32 53.333333 Z M 224 117.333333 C 227.846354 117.278646 231.424479 119.299479 233.364583 122.622396 C 235.304688 125.945312 235.304688 130.054688 233.364583 133.377604 C 231.424479 136.700521 227.846354 138.721354 224 138.666667 L 32 138.666667 C 28.153646 138.721354 24.575521 136.700521 22.635417 133.377604 C 20.695312 130.054688 20.695312 125.945312 22.635417 122.622396 C 24.575521 119.299479 28.153646 117.278646 32 117.333333 Z M 224 181.333333 C 227.846354 181.278646 231.424479 183.299479 233.364583 186.622396 C 235.304688 189.945312 235.304688 194.054688 233.364583 197.377604 C 231.424479 200.700521 227.846354 202.721354 224 202.666667 L 32 202.666667 C 28.153646 202.721354 24.575521 200.700521 22.635417 197.377604 C 20.695312 194.054688 20.695312 189.945312 22.635417 186.622396 C 24.575521 183.299479 28.153646 181.278646 32 181.333333 Z M 224 181.333333 " transform="matrix(1.5,0,0,1.5,0,0)"/>
<path style=" stroke:none;fill-rule:nonzero;fill:rgb(100%,100%,100%);fill-opacity:1;" d="M 48 80 C 42.230469 79.917969 36.863281 82.949219 33.953125 87.933594 C 31.042969 92.917969 31.042969 99.082031 33.953125 104.066406 C 36.863281 109.050781 42.230469 112.082031 48 112 L 336 112 C 341.769531 112.082031 347.136719 109.050781 350.046875 104.066406 C 352.957031 99.082031 352.957031 92.917969 350.046875 87.933594 C 347.136719 82.949219 341.769531 79.917969 336 80 Z M 48 176 C 42.230469 175.917969 36.863281 178.949219 33.953125 183.933594 C 31.042969 188.917969 31.042969 195.082031 33.953125 200.066406 C 36.863281 205.050781 42.230469 208.082031 48 208 L 336 208 C 341.769531 208.082031 347.136719 205.050781 350.046875 200.066406 C 352.957031 195.082031 352.957031 188.917969 350.046875 183.933594 C 347.136719 178.949219 341.769531 175.917969 336 176 Z M 48 272 C 42.230469 271.917969 36.863281 274.949219 33.953125 279.933594 C 31.042969 284.917969 31.042969 291.082031 33.953125 296.066406 C 36.863281 301.050781 42.230469 304.082031 48 304 L 336 304 C 341.769531 304.082031 347.136719 301.050781 350.046875 296.066406 C 352.957031 291.082031 352.957031 284.917969 350.046875 279.933594 C 347.136719 274.949219 341.769531 271.917969 336 272 Z M 48 272 "/>
</g>
</svg>
